<svg xmlns="http://www.w3.org/2000/svg" viewBox="0 0 274 104" width="274" height="104" role="img" aria-label="MK Digital — Software Studio">
  <rect width="274" height="104" rx="18" fill="#FFFFFF"/>
  <g transform="translate(20 20)">
  <defs><linearGradient id="mkL" gradientUnits="userSpaceOnUse" x1="0" y1="11" x2="0" y2="35"><stop offset="0" stop-color="#0E2A47"/><stop offset=".3333" stop-color="#0E2A47"/><stop offset=".3333" stop-color="#2F6DB0"/><stop offset=".6666" stop-color="#2F6DB0"/><stop offset=".6666" stop-color="#37C2B4"/><stop offset="1" stop-color="#37C2B4"/></linearGradient></defs>
  <rect x="8" y="12" width="48" height="11" rx="3" fill="#0E2A47"/>
  <rect x="8" y="27" width="48" height="11" rx="3" fill="#2F6DB0"/>
  <rect x="8" y="42" width="48" height="11" rx="3" fill="#37C2B4"/>
  <path transform="translate(80.00 35) scale(0.03200 -0.03200)" fill="url(#mkL)" d="M66 0V745H216L459 422L696 745H846V0H691V480L466 190H446L221 491V0Z"/>
  <path transform="translate(108.54 35) scale(0.03200 -0.03200)" fill="url(#mkL)" d="M66 0V745H221V439L476 745H670L418 441L676 0H495L313 315L221 204V0Z"/>
  <path transform="translate(129.89 35) scale(0.03200 -0.03200)" fill="url(#mkL)" d="M66 0V745H309Q430 745 519.0 697.0Q608 649 657.0 565.0Q706 481 706 373Q706 265 657.0 180.5Q608 96 519.0 48.0Q430 0 309 0ZM221 135H313Q386 135 439.0 164.5Q492 194 521.5 247.5Q551 301 551 373Q551 446 521.5 499.0Q492 552 439.0 581.0Q386 610 313 610H221Z"/>
  <path transform="translate(152.90 35) scale(0.03200 -0.03200)" fill="url(#mkL)" d="M55 0V546H205V0ZM55 595V745H205V595Z"/>
  <path transform="translate(160.58 35) scale(0.03200 -0.03200)" fill="url(#mkL)" d="M323 -220Q260 -220 206.0 -199.0Q152 -178 113.5 -140.5Q75 -103 58 -52L197 -3Q208 -41 242.0 -63.0Q276 -85 323 -85Q360 -85 387.0 -71.5Q414 -58 428.5 -32.0Q443 -6 443 29V81Q424 62 400 50Q356 27 297 27Q221 27 161.0 61.5Q101 96 67.0 156.5Q33 217 33.0 294.0Q33 371 67.0 430.5Q101 490 160.0 524.0Q219 558 294 558Q353 558 397 535Q428 518 453 489V546H593V29Q593 -43 558.0 -99.5Q523 -156 462.5 -188.0Q402 -220 323 -220ZM318 163Q356 163 384.0 179.0Q412 195 427.5 224.0Q443 253 443.0 292.0Q443 331 427.0 360.5Q411 390 383.0 406.5Q355 423 318 423Q280 423 250.5 406.5Q221 390 204.5 360.5Q188 331 188 292Q188 254 204.5 225.0Q221 196 250.5 179.5Q280 163 318 163Z"/>
  <path transform="translate(180.67 35) scale(0.03200 -0.03200)" fill="url(#mkL)" d="M55 0V546H205V0ZM55 595V745H205V595Z"/>
  <path transform="translate(188.35 35) scale(0.03200 -0.03200)" fill="url(#mkL)" d="M318 -6Q219 -6 164.5 47.5Q110 101 110 197V416H18V546H23Q65 546 87.5 567.0Q110 588 110 630V670H260V546H388V416H260V207Q260 179 270.0 160.5Q280 142 301.0 133.0Q322 124 353 124Q360 124 369.0 125.0Q378 126 388 127V0Q373 -2 354.0 -4.0Q335 -6 318 -6Z"/>
  <path transform="translate(201.18 35) scale(0.03200 -0.03200)" fill="url(#mkL)" d="M224 -12Q165 -12 122.0 7.0Q79 26 56.0 61.5Q33 97 33 146Q33 192 54.0 227.5Q75 263 118.5 287.0Q162 311 227 321L378 345V360Q378 391 353.5 412.0Q329 433 287 433Q247 433 216.5 411.0Q186 389 172 353L52 410Q68 456 103.0 489.0Q138 522 187.0 540.0Q236 558 294 558Q363 558 416.0 533.0Q469 508 498.5 463.5Q528 419 528 360V0H388V52Q379 42 369 35Q340 11 304.0 -0.5Q268 -12 224 -12ZM378 235 254 213Q222 207 205.0 192.5Q188 178 188 151Q188 126 207.0 112.0Q226 98 254 98Q291 98 319.0 114.0Q347 130 362.5 157.5Q378 185 378 218Z"/>
  <path transform="translate(219.20 35) scale(0.03200 -0.03200)" fill="url(#mkL)" d="M55 0V757H205V0Z"/>
  <path transform="translate(80.00 50) scale(0.00950 -0.00950)" fill="#1796A8" d="M337 -12Q267 -12 205.5 13.5Q144 39 99.5 86.0Q55 133 33 197L160 254Q188 193 237.5 158.0Q287 123 347 123Q379 123 402.0 133.0Q425 143 438.0 160.5Q451 178 451 202Q451 228 435.0 246.5Q419 265 385 276L239 324Q150 353 105.0 406.5Q60 460 60 535Q60 601 92.5 651.0Q125 701 183.5 729.0Q242 757 318 757Q385 757 442.0 734.0Q499 711 540.5 669.0Q582 627 603 568L477 511Q456 563 414.0 592.5Q372 622 318 622Q287 622 263.0 612.0Q239 602 226.0 583.5Q213 565 213 541Q213 515 230.0 495.5Q247 476 281 465L424 419Q514 390 558.5 338.0Q603 286 603 211Q603 146 569.0 95.5Q535 45 475.5 16.5Q416 -12 337 -12Z"/>
  <path transform="translate(90.11 50) scale(0.00950 -0.00950)" fill="#1796A8" d="M439 -12Q355 -12 283.0 17.0Q211 46 157.5 98.5Q104 151 74.0 221.0Q44 291 44 373Q44 455 73.5 525.0Q103 595 156.5 647.0Q210 699 282.0 728.0Q354 757 439 757Q524 757 596.0 728.0Q668 699 721.5 647.0Q775 595 804.5 525.0Q834 455 834 373Q834 291 804.0 221.0Q774 151 720.5 98.5Q667 46 595.0 17.0Q523 -12 439 -12ZM439 128Q490 128 533.5 146.0Q577 164 610.0 196.5Q643 229 661.0 274.0Q679 319 679 373Q679 427 661.0 471.5Q643 516 610.0 549.0Q577 582 533.5 599.5Q490 617 439 617Q388 617 344.5 599.5Q301 582 268.0 549.0Q235 516 217.0 471.5Q199 427 199 373Q199 319 217.0 274.0Q235 229 268.0 196.5Q301 164 344.5 146.0Q388 128 439 128Z"/>
  <path transform="translate(102.41 50) scale(0.00950 -0.00950)" fill="#1796A8" d="M66 0V745H576V610H221V421H526V286H221V0Z"/>
  <path transform="translate(111.95 50) scale(0.00950 -0.00950)" fill="#1796A8" d="M200 0V610H11V745H541V610H355V0Z"/>
  <path transform="translate(121.15 50) scale(0.00950 -0.00950)" fill="#1796A8" d="M206 0 11 745H179L304 214L436 745H596L728 214L853 745H1021L826 0H646L516 500L386 0Z"/>
  <path transform="translate(134.92 50) scale(0.00950 -0.00950)" fill="#1796A8" d="M11 0 263 745H469L721 0H552L502 152H229L179 0ZM272 287H459L366 574Z"/>
  <path transform="translate(145.83 50) scale(0.00950 -0.00950)" fill="#1796A8" d="M66 0V745H351Q428 745 487.5 718.0Q547 691 581.0 638.0Q615 585 615 507Q615 431 580.0 377.5Q545 324 486 297L656 0H482L331 270H221V0ZM221 405H352Q385 405 409.0 418.0Q433 431 446.5 454.0Q460 477 460 507Q460 538 446.5 561.0Q433 584 409.0 597.0Q385 610 352 610H221Z"/>
  <path transform="translate(156.13 50) scale(0.00950 -0.00950)" fill="#1796A8" d="M66 0V745H567V610H221V441H547V306H221V135H567V0Z"/>
  <path transform="translate(171.36 50) scale(0.00950 -0.00950)" fill="#1796A8" d="M337 -12Q267 -12 205.5 13.5Q144 39 99.5 86.0Q55 133 33 197L160 254Q188 193 237.5 158.0Q287 123 347 123Q379 123 402.0 133.0Q425 143 438.0 160.5Q451 178 451 202Q451 228 435.0 246.5Q419 265 385 276L239 324Q150 353 105.0 406.5Q60 460 60 535Q60 601 92.5 651.0Q125 701 183.5 729.0Q242 757 318 757Q385 757 442.0 734.0Q499 711 540.5 669.0Q582 627 603 568L477 511Q456 563 414.0 592.5Q372 622 318 622Q287 622 263.0 612.0Q239 602 226.0 583.5Q213 565 213 541Q213 515 230.0 495.5Q247 476 281 465L424 419Q514 390 558.5 338.0Q603 286 603 211Q603 146 569.0 95.5Q535 45 475.5 16.5Q416 -12 337 -12Z"/>
  <path transform="translate(181.47 50) scale(0.00950 -0.00950)" fill="#1796A8" d="M200 0V610H11V745H541V610H355V0Z"/>
  <path transform="translate(190.67 50) scale(0.00950 -0.00950)" fill="#1796A8" d="M362 -12Q274 -12 205.0 25.0Q136 62 96.5 126.5Q57 191 57 273V745H212V283Q212 239 231.5 203.5Q251 168 285.0 148.0Q319 128 362 128Q406 128 439.5 148.0Q473 168 492.5 203.5Q512 239 512 283V745H667V273Q667 191 627.5 126.5Q588 62 519.0 25.0Q450 -12 362 -12Z"/>
  <path transform="translate(201.51 50) scale(0.00950 -0.00950)" fill="#1796A8" d="M66 0V745H309Q430 745 519.0 697.0Q608 649 657.0 565.0Q706 481 706 373Q706 265 657.0 180.5Q608 96 519.0 48.0Q430 0 309 0ZM221 135H313Q386 135 439.0 164.5Q492 194 521.5 247.5Q551 301 551 373Q551 446 521.5 499.0Q492 552 439.0 581.0Q386 610 313 610H221Z"/>
  <path transform="translate(212.49 50) scale(0.00950 -0.00950)" fill="#1796A8" d="M66 0V745H221V0Z"/>
  <path transform="translate(219.18 50) scale(0.00950 -0.00950)" fill="#1796A8" d="M439 -12Q355 -12 283.0 17.0Q211 46 157.5 98.5Q104 151 74.0 221.0Q44 291 44 373Q44 455 73.5 525.0Q103 595 156.5 647.0Q210 699 282.0 728.0Q354 757 439 757Q524 757 596.0 728.0Q668 699 721.5 647.0Q775 595 804.5 525.0Q834 455 834 373Q834 291 804.0 221.0Q774 151 720.5 98.5Q667 46 595.0 17.0Q523 -12 439 -12ZM439 128Q490 128 533.5 146.0Q577 164 610.0 196.5Q643 229 661.0 274.0Q679 319 679 373Q679 427 661.0 471.5Q643 516 610.0 549.0Q577 582 533.5 599.5Q490 617 439 617Q388 617 344.5 599.5Q301 582 268.0 549.0Q235 516 217.0 471.5Q199 427 199 373Q199 319 217.0 274.0Q235 229 268.0 196.5Q301 164 344.5 146.0Q388 128 439 128Z"/>
</g>
</svg>
